# xmcd
#
# Track frame offsets:
# 150
# 24367
# 43847
#
# Disc length: 802 seconds
#
#
# Revision: 0
# Processed by: cddbd v1.5.1PL0 Copyright (c) Steve Scherf et al.
# Submitted via: FreeRIP 2.60 
#
DISCID=1c032003
DTITLE=Ghost of the Robot - New Man
DYEAR=2004
DGENRE=Alt. Rock
TTITLE0=New Man
TTITLE1=Country Live-In
TTITLE2=The End
EXTD=
EXTT0=
EXTT1=
EXTT2=
PLAYORDER=
